<svg width="2043" height="2000" viewBox="0 0 2043 2000" fill="none" xmlns="http://www.w3.org/2000/svg">
<path d="M687.272 452.26C810.715 415.953 1115.69 263.465 1130.21 89.1924C1001.93 89.1924 716.319 103.715 600.138 161.806C454.911 234.419 215.284 343.34 186.239 452.26C157.193 561.18 563.829 488.567 687.272 452.26Z" fill="url(#paint0_radial_2210_63)"/>
<path d="M992.25 742.714C1173.78 670.1 1544.11 488.567 1544.11 205.374C1616.73 205.374 1732.91 248.942 1849.09 423.214C1965.27 597.487 1711.12 815.327 1544.11 953.293C1377.1 1091.26 839.762 1316.36 571.092 1359.93C302.422 1403.5 62.7977 1432.54 11.9683 1185.66C278.218 1062.21 847.023 800.805 992.25 742.714Z" fill="url(#paint1_radial_2210_63)"/>
<path d="M803.455 1664.91C1176.2 1609.23 1924.61 1403.5 1936.23 1025.91C1962.85 1013.8 2011.74 1041.88 1994.32 1251.01C1972.53 1512.42 1674.82 1686.69 1565.9 1744.78C1456.98 1802.87 992.25 2086.06 556.569 1897.27L803.455 1664.91Z" fill="url(#paint2_radial_2210_63)"/>
<path d="M600.132 1461.58C796.188 1388.96 1246.39 1374.44 1311.74 1381.7C1377.1 1388.96 1783.73 1418.01 1754.69 1621.33C1725.64 1824.64 1413.4 1933.56 1377.1 1955.35C1340.79 1977.13 1072.12 2035.22 1072.12 1969.87C1072.12 1904.52 1276.72 1916.19 1333.53 1897.26C1464.23 1853.69 1355.31 1773.82 1268.18 1752.03C1181.04 1730.25 832.495 1701.2 621.916 1919.04C563.825 1906.94 408.433 1842.07 280.633 1679.42C309.678 1585.02 404.076 1534.19 600.132 1461.58ZM353.246 604.735C672.746 474.025 1420.66 459.504 1689.33 553.907C1830.57 603.532 2016.09 735.441 2030.62 844.361C2045.14 953.282 2059.66 1040.42 1979.79 1287.3C1958 967.803 1340.79 931.496 1072.12 946.019C803.449 960.541 273.371 1033.16 33.7473 1265.52C11.9633 1229.21 -9.8203 1083.99 4.70233 851.623C41.0099 793.531 97.7723 709.252 353.246 604.735ZM759.882 31.1007C1137.47 -63.2927 1536.85 67.4088 1732.9 285.248C1406.14 140.019 1067.77 145.738 817.972 183.587C578.348 219.894 302.416 270.723 171.712 430.475C360.507 154.544 643.7 60.1449 759.882 31.1007Z" fill="#D9D9D9" style="fill:#D9D9D9;fill:color(display-p3 0.8510 0.8510 0.8510);fill-opacity:1;"/>
<path d="M600.132 1461.58C796.188 1388.96 1246.39 1374.44 1311.74 1381.7C1377.1 1388.96 1783.73 1418.01 1754.69 1621.33C1725.64 1824.64 1413.4 1933.56 1377.1 1955.35C1340.79 1977.13 1072.12 2035.22 1072.12 1969.87C1072.12 1904.52 1276.72 1916.19 1333.53 1897.26C1464.23 1853.69 1355.31 1773.82 1268.18 1752.03C1181.04 1730.25 832.495 1701.2 621.916 1919.04C563.825 1906.94 408.433 1842.07 280.633 1679.42C309.678 1585.02 404.076 1534.19 600.132 1461.58ZM353.246 604.735C672.746 474.025 1420.66 459.504 1689.33 553.907C1830.57 603.532 2016.09 735.441 2030.62 844.361C2045.14 953.282 2059.66 1040.42 1979.79 1287.3C1958 967.803 1340.79 931.496 1072.12 946.019C803.449 960.541 273.371 1033.16 33.7473 1265.52C11.9633 1229.21 -9.8203 1083.99 4.70233 851.623C41.0099 793.531 97.7723 709.252 353.246 604.735ZM759.882 31.1007C1137.47 -63.2927 1536.85 67.4088 1732.9 285.248C1406.14 140.019 1067.77 145.738 817.972 183.587C578.348 219.894 302.416 270.723 171.712 430.475C360.507 154.544 643.7 60.1449 759.882 31.1007Z" fill="url(#paint3_radial_2210_63)"/>
<defs>
<radialGradient id="paint0_radial_2210_63" cx="0" cy="0" r="1" gradientUnits="userSpaceOnUse" gradientTransform="translate(784.231 2200.19) rotate(-75.9187) scale(2238.4 2943.12)">
<stop offset="0.0528846" stop-color="#A2712F" style="stop-color:#A2712F;stop-color:color(display-p3 0.6349 0.4423 0.1854);stop-opacity:1;"/>
<stop offset="0.278846" stop-color="#6C4108" style="stop-color:#6C4108;stop-color:color(display-p3 0.4229 0.2555 0.0323);stop-opacity:1;"/>
<stop offset="0.442308" stop-color="#A57330" style="stop-color:#A57330;stop-color:color(display-p3 0.6457 0.4504 0.1899);stop-opacity:1;"/>
<stop offset="0.629808" stop-color="#69420D" style="stop-color:#69420D;stop-color:color(display-p3 0.4131 0.2582 0.0516);stop-opacity:1;"/>
<stop offset="0.865385" stop-color="#8A5818" style="stop-color:#8A5818;stop-color:color(display-p3 0.5406 0.3466 0.0951);stop-opacity:1;"/>
</radialGradient>
<radialGradient id="paint1_radial_2210_63" cx="0" cy="0" r="1" gradientUnits="userSpaceOnUse" gradientTransform="translate(784.231 2200.19) rotate(-75.9187) scale(2238.4 2943.12)">
<stop offset="0.0528846" stop-color="#A2712F" style="stop-color:#A2712F;stop-color:color(display-p3 0.6349 0.4423 0.1854);stop-opacity:1;"/>
<stop offset="0.278846" stop-color="#6C4108" style="stop-color:#6C4108;stop-color:color(display-p3 0.4229 0.2555 0.0323);stop-opacity:1;"/>
<stop offset="0.442308" stop-color="#A57330" style="stop-color:#A57330;stop-color:color(display-p3 0.6457 0.4504 0.1899);stop-opacity:1;"/>
<stop offset="0.629808" stop-color="#69420D" style="stop-color:#69420D;stop-color:color(display-p3 0.4131 0.2582 0.0516);stop-opacity:1;"/>
<stop offset="0.865385" stop-color="#8A5818" style="stop-color:#8A5818;stop-color:color(display-p3 0.5406 0.3466 0.0951);stop-opacity:1;"/>
</radialGradient>
<radialGradient id="paint2_radial_2210_63" cx="0" cy="0" r="1" gradientUnits="userSpaceOnUse" gradientTransform="translate(784.231 2200.19) rotate(-75.9187) scale(2238.4 2943.12)">
<stop offset="0.0528846" stop-color="#A2712F" style="stop-color:#A2712F;stop-color:color(display-p3 0.6349 0.4423 0.1854);stop-opacity:1;"/>
<stop offset="0.278846" stop-color="#6C4108" style="stop-color:#6C4108;stop-color:color(display-p3 0.4229 0.2555 0.0323);stop-opacity:1;"/>
<stop offset="0.442308" stop-color="#A57330" style="stop-color:#A57330;stop-color:color(display-p3 0.6457 0.4504 0.1899);stop-opacity:1;"/>
<stop offset="0.629808" stop-color="#69420D" style="stop-color:#69420D;stop-color:color(display-p3 0.4131 0.2582 0.0516);stop-opacity:1;"/>
<stop offset="0.865385" stop-color="#8A5818" style="stop-color:#8A5818;stop-color:color(display-p3 0.5406 0.3466 0.0951);stop-opacity:1;"/>
</radialGradient>
<radialGradient id="paint3_radial_2210_63" cx="0" cy="0" r="1" gradientTransform="matrix(2040.44 1779.03 -3098.99 3554.35 174.272 225.101)" gradientUnits="userSpaceOnUse">
<stop offset="0.0528846" stop-color="#D89031" style="stop-color:#D89031;stop-color:color(display-p3 0.8465 0.5666 0.1933);stop-opacity:1;"/>
<stop offset="0.278846" stop-color="#E2AF6C" style="stop-color:#E2AF6C;stop-color:color(display-p3 0.8877 0.6881 0.4220);stop-opacity:1;"/>
<stop offset="0.442308" stop-color="#D28927" style="stop-color:#D28927;stop-color:color(display-p3 0.8230 0.5359 0.1532);stop-opacity:1;"/>
<stop offset="0.629808" stop-color="#EEC48B" style="stop-color:#EEC48B;stop-color:color(display-p3 0.9340 0.7676 0.5458);stop-opacity:1;"/>
<stop offset="0.865385" stop-color="#D27F13" style="stop-color:#D27F13;stop-color:color(display-p3 0.8232 0.4979 0.0763);stop-opacity:1;"/>
</radialGradient>
</defs>
</svg>
