<svg width="1080" height="140" viewBox="0 0 1080 140" fill="none" xmlns="http://www.w3.org/2000/svg">
<path d="M47.7822 31.4423C56.3645 28.9181 77.5679 18.3164 78.5776 6.2002C69.6587 6.2002 49.8017 7.20988 41.7242 11.2486C31.6274 16.297 14.9675 23.8697 12.9481 31.4423C10.9287 39.0149 39.1999 33.9665 47.7822 31.4423Z" fill="url(#paint0_radial_2210_51)"/>
<path d="M68.9857 51.636C81.6068 46.5875 107.354 33.9665 107.354 14.2777C112.402 14.2777 120.48 17.3067 128.557 29.4229C136.635 41.5391 118.965 56.6844 107.354 66.2764C95.7423 75.8684 58.384 91.5185 39.7049 94.5475C21.0257 97.5766 4.36593 99.596 0.832031 82.4313C19.3429 73.849 58.8889 55.6747 68.9857 51.636Z" fill="url(#paint1_radial_2210_51)"/>
<path d="M55.8598 115.751C81.775 111.88 133.807 97.5766 134.615 71.3248C136.466 70.4834 139.866 72.4355 138.654 86.9749C137.139 105.149 116.441 117.265 108.868 121.304C101.296 125.343 68.9857 145.032 38.6952 131.906L55.8598 115.751Z" fill="url(#paint2_radial_2210_51)"/>
<path d="M41.7243 101.614C55.355 96.566 86.6554 95.5569 91.1989 96.0617C95.743 96.5666 124.013 98.5856 121.994 112.721C119.975 126.856 98.2692 134.428 95.7429 135.944C93.2187 137.458 74.5388 141.497 74.5388 136.953C74.5391 132.41 88.7643 133.222 92.7136 131.905C101.801 128.876 94.2277 123.322 88.1696 121.808C82.1112 120.293 57.8792 118.274 43.239 133.419C39.2003 132.578 28.3966 128.068 19.5114 116.76C21.5308 110.197 28.0936 106.663 41.7243 101.614ZM24.5593 42.0432C46.7723 32.9556 98.7717 31.9456 117.451 38.509C127.27 41.9592 140.169 51.1307 141.178 58.7033C142.188 66.2757 143.197 72.3339 137.644 89.4982C136.13 67.2851 93.2179 64.761 74.5388 65.7707C55.8595 66.7804 19.006 71.8287 2.34639 87.9836C0.831929 85.459 -0.682732 75.3623 0.326859 59.2082C2.85111 55.1694 6.7979 49.3096 24.5593 42.0432ZM52.8308 2.16229C79.0824 -4.40033 106.848 4.68624 120.479 19.8312C97.7616 9.73448 74.237 10.1325 56.8698 12.7639C40.2101 15.2881 21.0254 18.8213 11.9382 29.9279C25.0641 10.744 44.7533 4.18159 52.8308 2.16229Z" fill="#D9D9D9" style="fill:#D9D9D9;fill:color(display-p3 0.8510 0.8510 0.8510);fill-opacity:1;"/>
<path d="M41.7243 101.614C55.355 96.566 86.6554 95.5569 91.1989 96.0617C95.743 96.5666 124.013 98.5856 121.994 112.721C119.975 126.856 98.2692 134.428 95.7429 135.944C93.2187 137.458 74.5388 141.497 74.5388 136.953C74.5391 132.41 88.7643 133.222 92.7136 131.905C101.801 128.876 94.2277 123.322 88.1696 121.808C82.1112 120.293 57.8792 118.274 43.239 133.419C39.2003 132.578 28.3966 128.068 19.5114 116.76C21.5308 110.197 28.0936 106.663 41.7243 101.614ZM24.5593 42.0432C46.7723 32.9556 98.7717 31.9456 117.451 38.509C127.27 41.9592 140.169 51.1307 141.178 58.7033C142.188 66.2757 143.197 72.3339 137.644 89.4982C136.13 67.2851 93.2179 64.761 74.5388 65.7707C55.8595 66.7804 19.006 71.8287 2.34639 87.9836C0.831929 85.459 -0.682732 75.3623 0.326859 59.2082C2.85111 55.1694 6.7979 49.3096 24.5593 42.0432ZM52.8308 2.16229C79.0824 -4.40033 106.848 4.68624 120.479 19.8312C97.7616 9.73448 74.237 10.1325 56.8698 12.7639C40.2101 15.2881 21.0254 18.8213 11.9382 29.9279C25.0641 10.744 44.7533 4.18159 52.8308 2.16229Z" fill="url(#paint3_radial_2210_51)"/>
<path d="M251.646 135.035H195.83V13.6868H248.98C252.93 13.6868 256.544 14.062 259.823 14.8126C263.101 15.5236 265.827 16.4519 268 17.5974C270.172 18.7429 272.088 20.1255 273.747 21.7451C275.406 23.3646 276.69 24.9842 277.598 26.6037C278.507 28.1838 279.238 29.9021 279.791 31.7587C280.383 33.5757 280.758 35.1558 280.916 36.4988C281.074 37.8419 281.153 39.1849 281.153 40.528C281.153 42.108 280.916 43.8264 280.442 45.6829C280.008 47.5 279.198 49.5146 278.013 51.7266C276.828 53.9387 275.347 55.973 273.569 57.8296C271.792 59.6862 269.402 61.365 266.4 62.866C263.437 64.3671 260.099 65.4139 256.386 66.0064C260.099 66.3224 263.536 66.9939 266.696 68.021C269.856 69.048 272.542 70.2923 274.754 71.7539C276.966 73.2154 278.941 74.914 280.679 76.8495C282.457 78.7851 283.879 80.7404 284.946 82.7155C286.052 84.6906 286.94 86.7644 287.612 88.937C288.323 91.1096 288.817 93.1241 289.093 94.9807C289.37 96.8373 289.508 98.6543 289.508 100.432C289.508 102.288 289.35 104.204 289.034 106.179C288.758 108.154 288.204 110.307 287.375 112.638C286.585 114.929 285.578 117.121 284.353 119.215C283.129 121.269 281.509 123.283 279.494 125.259C277.519 127.194 275.248 128.873 272.68 130.295C270.152 131.717 267.071 132.863 263.437 133.732C259.842 134.601 255.912 135.035 251.646 135.035ZM205.429 124.37C205.429 127.53 205.923 129.702 206.911 130.888C207.898 132.033 209.537 132.606 211.828 132.606H240.981C252.949 132.606 262.094 129.762 268.414 124.074C274.774 118.385 277.954 110.505 277.954 100.432C277.954 90.359 274.774 82.4193 268.414 76.6125C262.055 70.8058 252.91 67.9025 240.981 67.9025H211.591C209.774 67.9025 208.313 68.4752 207.207 69.6208C206.101 70.7268 205.548 72.1884 205.548 74.0054C205.469 90.9121 205.429 107.7 205.429 124.37ZM205.548 21.9228V59.4294C205.548 61.2465 206.101 62.708 207.207 63.8141C208.313 64.9201 209.774 65.4731 211.591 65.4731H241.692C246.313 65.4731 250.5 64.8016 254.253 63.4586C258.045 62.076 261.146 60.2392 263.556 57.9481C265.965 55.6175 267.822 52.9314 269.125 49.8898C270.429 46.8087 271.081 43.5498 271.081 40.1132C271.081 33.082 268.493 27.3345 263.319 22.8708C258.144 18.3677 250.935 16.1161 241.692 16.1161H211.828C209.853 16.1161 208.372 16.5309 207.385 17.3604C206.397 18.1899 205.785 19.7107 205.548 21.9228ZM312.723 58.2444C312.723 56.8223 313.177 55.6175 314.086 54.63C314.994 53.603 316.219 52.8524 317.759 52.3784C319.34 51.9044 320.88 51.5686 322.381 51.3711C323.882 51.1736 325.482 51.0749 327.181 51.0749H340.749C342.29 51.0749 343.06 51.8056 343.06 53.2672C343.06 54.2547 342.349 55.657 340.927 57.4741C339.544 59.2912 337.846 61.444 335.831 63.9326C333.856 66.3817 331.861 69.1468 329.847 72.2279C327.872 75.2695 326.173 79.0221 324.751 83.4858C323.369 87.9099 322.677 92.5514 322.677 97.41C322.677 103.849 323.882 109.833 326.292 115.363C328.701 120.894 332.177 125.357 336.72 128.754C341.263 132.152 346.378 133.85 352.066 133.85C356.096 133.85 359.907 132.942 363.502 131.125C367.136 129.268 370.158 126.918 372.568 124.074C374.977 121.229 376.893 118.089 378.315 114.652C379.737 111.216 380.448 107.858 380.448 104.58V51.0749H390.166V135.035H380.448V125.91C380.448 123.738 379.954 122.651 378.967 122.651C378.335 122.651 377.446 123.224 376.301 124.37C374.365 126.345 372.449 128.063 370.553 129.525C368.657 130.986 366.504 132.349 364.095 133.613C361.725 134.877 359.078 135.825 356.155 136.457C353.271 137.129 350.17 137.464 346.852 137.464C341.757 137.464 337.076 136.497 332.81 134.561C328.583 132.586 325.067 129.959 322.263 126.681C319.498 123.362 317.345 119.59 315.804 115.363C314.303 111.097 313.553 106.653 313.553 102.032C313.553 98.4371 314.007 94.9017 314.915 91.4256C315.863 87.9099 317.088 84.7696 318.589 82.0045C320.09 79.1999 321.749 76.5335 323.566 74.0054C325.383 71.4379 327.181 69.1468 328.958 67.1322C330.775 65.1176 332.434 63.3203 333.935 61.7403C335.436 60.1207 336.641 58.6986 337.55 57.4741C338.498 56.2496 338.972 55.2818 338.972 54.5707C338.972 54.2942 338.912 54.077 338.794 53.919C338.675 53.761 338.478 53.6622 338.201 53.6227C337.925 53.5437 337.708 53.5042 337.55 53.5042C337.392 53.4647 337.115 53.4647 336.72 53.5042C336.365 53.5042 336.167 53.5042 336.128 53.5042H327.892C325.996 53.5042 324.415 53.8005 323.151 54.393C321.887 54.946 320.959 55.6373 320.367 56.4668C319.814 57.2568 319.34 58.0666 318.945 58.8961C318.549 59.7257 318.095 60.4367 317.582 61.0292C317.068 61.5822 316.416 61.8588 315.626 61.8588C314.955 61.8588 314.303 61.5427 313.671 60.9107C313.039 60.2392 312.723 59.3504 312.723 58.2444ZM428.608 125.259C421.064 117.121 417.291 106.377 417.291 93.0254C417.291 79.6739 421.064 68.9493 428.608 60.8515C436.193 52.7142 446.147 48.6455 458.471 48.6455C463.172 48.6455 467.873 49.4553 472.573 51.0749C477.314 52.6944 481.264 54.946 484.424 57.8296C487.584 60.6737 489.164 63.7153 489.164 66.9544C489.164 68.3765 488.789 69.5615 488.038 70.5096C487.288 71.4576 486.32 71.9316 485.135 71.9316C483.831 71.9316 482.646 71.5564 481.58 70.8058C480.553 70.0158 479.644 69.0085 478.854 67.784C478.104 66.5594 477.333 65.2164 476.543 63.7548C475.793 62.2538 474.904 60.7725 473.877 59.3109C472.889 57.8099 471.764 56.4471 470.5 55.2225C469.236 53.998 467.577 53.0104 465.522 52.2599C463.468 51.4699 461.158 51.0749 458.59 51.0749C449.228 51.0749 441.683 54.8868 435.956 62.5105C430.228 70.0948 427.364 80.1874 427.364 92.7884C427.364 101.123 428.668 108.47 431.275 114.83C433.882 121.19 437.536 126.108 442.236 129.584C446.977 133.06 452.428 134.798 458.59 134.798C464.594 134.798 470.322 133.159 475.773 129.88C481.224 126.602 485.273 122.493 487.92 117.556L489.994 118.385C486.596 124.587 482.232 129.327 476.899 132.606C471.606 135.845 465.463 137.464 458.471 137.464C446.147 137.464 436.193 133.396 428.608 125.259ZM516.349 135.035V13.6868H526.066V82.2415C526.066 84.6116 526.758 85.7966 528.14 85.7966C528.851 85.7966 529.74 85.3819 530.806 84.5523L573.053 51.0749H585.674C581.487 53.8795 575.463 57.7704 567.602 62.7475C559.781 67.6852 553.461 71.7934 548.641 75.072C547.14 76.099 546.271 77.3828 546.034 78.9234C545.797 80.4244 546.232 81.9057 547.338 83.3673L585.318 135.035H573.053L539.161 88.937C537.976 87.2384 536.416 86.3891 534.48 86.3891C532.15 86.3891 530.155 87.6137 528.496 90.0628C526.876 92.5119 526.066 94.961 526.066 97.41V135.035H516.349ZM638.456 137.464C632.412 137.464 626.823 136.418 621.687 134.324C616.552 132.231 612.128 129.288 608.415 125.496C604.741 121.664 601.858 116.944 599.764 111.334C597.71 105.725 596.683 99.5431 596.683 92.7884C596.683 84.8486 598.678 77.5013 602.667 70.7466C606.697 63.9523 612.148 58.5801 619.021 54.63C625.894 50.6403 633.34 48.6455 641.359 48.6455C644.598 48.6455 647.739 49.001 650.78 49.7121C653.861 50.4231 656.686 51.4896 659.253 52.9117C661.86 54.2942 663.934 56.1705 665.475 58.5406C667.055 60.8712 667.845 63.5178 667.845 66.4804C667.845 70.8256 666.443 74.9337 663.638 78.8049C660.833 82.676 657.12 85.9546 652.499 88.6407C647.877 91.3268 642.524 93.4599 636.441 95.04C630.397 96.62 624.196 97.41 617.836 97.41H613.57C611.713 97.331 610.291 97.8248 609.304 98.8913C608.316 99.9184 608 101.281 608.356 102.98C610.331 112.737 614.143 120.321 619.791 125.733C625.48 131.144 632.629 133.85 641.241 133.85C647.561 133.85 652.933 132.29 657.357 129.169C661.821 126.009 665.178 121.94 667.43 116.963L669.978 118.385C663.895 131.105 653.387 137.464 638.456 137.464ZM607.171 89.174C607.092 90.596 607.467 91.8798 608.296 93.0254C609.165 94.1709 610.232 94.8227 611.496 94.9807C613.787 95.2967 615.861 95.4547 617.718 95.4547C620.917 95.4547 624.334 95.04 627.968 94.2104C631.642 93.3414 635.236 92.0773 638.752 90.4183C642.307 88.7592 645.507 86.8237 648.351 84.6116C651.234 82.3995 653.565 79.7924 655.343 76.7903C657.12 73.7487 658.009 70.5886 658.009 67.31C658.009 62.2933 656.33 58.3431 652.973 55.4595C649.654 52.5364 645.625 51.0749 640.885 51.0749C635.829 51.0749 631.168 52.1612 626.902 54.3337C622.635 56.4668 619.1 59.3307 616.295 62.9253C613.491 66.4804 611.299 70.5293 609.718 75.072C608.138 79.5751 607.289 84.2758 607.171 89.174ZM688.868 53.5042V51.0749C691.672 51.0749 694.22 50.5416 696.511 49.4751C698.842 48.4085 700.698 47.0655 702.081 45.4459C703.463 43.7869 704.51 42.029 705.221 40.1725C705.972 38.3159 706.347 36.5186 706.347 34.7805C706.347 32.3709 705.675 30.2774 704.332 28.4998C703.029 26.7222 701.468 25.8335 699.651 25.8335C698.624 25.8335 697.815 26.0705 697.222 26.5445C696.669 26.979 696.294 27.5123 696.096 28.1443C695.938 28.7763 695.78 29.4083 695.622 30.0404C695.504 30.6724 695.207 31.2254 694.733 31.6994C694.259 32.1339 693.588 32.3512 692.719 32.3512C691.455 32.3512 690.487 31.9562 689.816 31.1661C689.184 30.3366 688.868 29.4478 688.868 28.4998C688.868 26.4852 689.677 24.9447 691.297 23.8781C692.956 22.8116 694.733 22.2783 696.63 22.2783C700.264 22.2783 703.207 23.5621 705.458 26.1297C707.749 28.6578 708.895 31.4229 708.895 34.425C708.895 39.5602 706.92 43.8461 702.97 47.2827C701.903 48.1913 701.488 48.9418 701.725 49.5343C702.002 50.0873 702.476 50.4823 703.147 50.7194C703.858 50.9564 704.648 51.0749 705.517 51.0749H715.057V53.5042C714.109 53.5042 713.26 53.5437 712.509 53.6227C711.798 53.7017 711.146 53.8005 710.554 53.919C710.001 54.0375 709.507 54.2547 709.072 54.5707C708.677 54.8473 708.322 55.0843 708.006 55.2818C707.729 55.4793 707.492 55.8348 707.295 56.3483C707.137 56.8618 706.999 57.2766 706.88 57.5926C706.801 57.8691 706.722 58.3826 706.643 59.1332C706.604 59.8442 706.584 60.417 706.584 60.8515C706.584 61.2465 706.584 61.8983 706.584 62.8068C706.584 63.0438 706.584 63.2216 706.584 63.3401V135.035H696.867V70.3318C696.867 66.5397 697.084 63.6758 697.518 61.7403C697.953 59.8047 698.861 58.1456 700.244 56.7631C701.587 55.42 702.199 54.551 702.081 54.156C701.962 53.7215 701.034 53.5042 699.296 53.5042H688.868ZM871.933 135.035H787.854V13.6868H797.453V124.37C797.453 127.53 797.947 129.702 798.934 130.888C799.922 132.033 801.561 132.606 803.852 132.606C814.834 132.606 827.356 131.737 841.418 129.999C855.52 128.261 865.692 126.345 871.933 124.251V135.035ZM907.176 135.035H897.459V51.0749H907.176V135.035ZM891.06 31.7587C890.783 31.6797 890.586 31.5809 890.467 31.4624C890.388 31.3439 890.388 31.2254 890.467 31.1069C890.586 30.9884 890.783 30.8896 891.06 30.8106C894.496 29.7046 896.886 28.4405 898.229 27.0185C899.572 25.5964 900.777 22.9696 901.843 19.138C901.962 18.7429 902.179 18.5454 902.495 18.5454C902.811 18.5454 903.028 18.7429 903.147 19.138C904.253 23.0486 905.478 25.7347 906.821 27.1962C908.164 28.6183 910.553 29.8231 913.99 30.8106C914.267 30.8896 914.444 30.9884 914.523 31.1069C914.642 31.2254 914.642 31.3439 914.523 31.4624C914.444 31.5809 914.267 31.6797 913.99 31.7587C912.094 32.3907 910.652 32.9437 909.665 33.4177C908.677 33.8522 907.709 34.504 906.761 35.373C905.813 36.2421 905.083 37.3086 904.569 38.5727C904.055 39.8367 903.581 41.4958 903.147 43.5498C903.107 43.8659 902.89 44.0239 902.495 44.0239C902.1 44.0239 901.883 43.8659 901.843 43.5498C900.777 39.5997 899.572 36.9334 898.229 35.5508C896.925 34.1683 894.536 32.9042 891.06 31.7587ZM934.243 119.867C934.243 118.484 934.697 117.339 935.605 116.43C936.553 115.482 937.719 115.008 939.101 115.008C940.405 115.008 941.669 115.699 942.893 117.082C944.118 118.464 945.362 120.143 946.626 122.118C947.89 124.054 949.352 126.009 951.011 127.984C952.709 129.92 955.04 131.579 958.003 132.961C961.005 134.344 964.441 135.035 968.312 135.035C972.065 135.035 975.699 134.403 979.215 133.139C982.731 131.836 985.693 130.196 988.103 128.221C990.512 126.207 992.448 123.995 993.909 121.585C995.371 119.175 996.102 116.825 996.102 114.534C996.102 111.374 995.41 108.648 994.028 106.357C992.645 104.027 990.769 102.209 988.399 100.906C986.068 99.6024 983.382 98.4963 980.341 97.5878C977.339 96.6793 974.159 95.909 970.801 95.277C967.443 94.6449 964.086 93.9932 960.728 93.3216C957.371 92.6106 954.171 91.7021 951.129 90.596C948.127 89.49 945.441 88.147 943.071 86.5669C940.741 84.9473 938.884 82.7748 937.501 80.0492C936.119 77.2841 935.428 74.0449 935.428 70.3318C935.428 64.0511 938.212 58.8764 943.782 54.8077C949.352 50.6996 957.055 48.6455 966.89 48.6455C976.924 48.6455 984.548 49.5936 989.762 51.4896C994.976 53.3462 997.583 55.9533 997.583 59.3109C997.583 60.2589 997.109 61.1477 996.161 61.9773C995.213 62.8068 994.146 63.2216 992.961 63.2216C991.618 63.2216 990.196 62.787 988.695 61.918C987.234 61.0095 985.772 59.9232 984.311 58.6591C982.889 57.3556 981.368 56.0718 979.748 54.8077C978.168 53.5042 976.252 52.4179 974.001 51.5489C971.789 50.6403 969.458 50.1861 967.009 50.1861C960.61 50.1861 955.336 52.0229 951.189 55.6965C947.08 59.3702 945.026 63.5771 945.026 68.3172C945.026 70.7663 945.56 72.8994 946.626 74.7165C947.732 76.5335 949.214 77.9753 951.07 79.0419C952.927 80.1084 955.08 81.0762 957.529 81.9452C960.017 82.8143 962.644 83.4858 965.409 83.9598C968.214 84.4338 971.078 85.0066 974.001 85.6781C976.963 86.3496 979.827 87.0212 982.592 87.6927C985.397 88.3642 988.024 89.332 990.473 90.596C992.961 91.8601 995.134 93.3216 996.991 94.9807C998.847 96.6398 1000.31 98.7926 1001.38 101.439C1002.48 104.086 1003.03 107.108 1003.03 110.505C1003.03 116.153 1001.41 121.052 998.176 125.199C994.976 129.307 990.69 132.389 985.318 134.443C979.946 136.457 973.843 137.464 967.009 137.464C962.861 137.464 958.733 136.911 954.625 135.805C950.557 134.739 947.041 133.376 944.078 131.717C941.155 130.018 938.785 128.122 936.968 126.029C935.151 123.896 934.243 121.842 934.243 119.867ZM1023.29 53.5042V51.0749C1026.09 51.0749 1028.64 50.5416 1030.93 49.4751C1033.26 48.4085 1035.12 47.0655 1036.5 45.4459C1037.88 43.7869 1038.93 42.029 1039.64 40.1725C1040.39 38.3159 1040.77 36.5186 1040.77 34.7805C1040.77 32.3709 1040.09 30.2774 1038.75 28.4998C1037.45 26.7222 1035.89 25.8335 1034.07 25.8335C1033.04 25.8335 1032.23 26.0705 1031.64 26.5445C1031.09 26.979 1030.71 27.5123 1030.52 28.1443C1030.36 28.7763 1030.2 29.4083 1030.04 30.0404C1029.92 30.6724 1029.63 31.2254 1029.15 31.6994C1028.68 32.1339 1028.01 32.3512 1027.14 32.3512C1025.87 32.3512 1024.91 31.9562 1024.23 31.1661C1023.6 30.3366 1023.29 29.4478 1023.29 28.4998C1023.29 26.4852 1024.1 24.9447 1025.72 23.8781C1027.38 22.8116 1029.15 22.2783 1031.05 22.2783C1034.68 22.2783 1037.63 23.5621 1039.88 26.1297C1042.17 28.6578 1043.31 31.4229 1043.31 34.425C1043.31 39.5602 1041.34 43.8461 1037.39 47.2827C1036.32 48.1913 1035.91 48.9418 1036.14 49.5343C1036.42 50.0873 1036.89 50.4823 1037.57 50.7194C1038.28 50.9564 1039.07 51.0749 1039.94 51.0749H1049.48V53.5042C1048.53 53.5042 1047.68 53.5437 1046.93 53.6227C1046.22 53.7017 1045.57 53.8005 1044.97 53.919C1044.42 54.0375 1043.93 54.2547 1043.49 54.5707C1043.1 54.8473 1042.74 55.0843 1042.43 55.2818C1042.15 55.4793 1041.91 55.8348 1041.71 56.3483C1041.56 56.8618 1041.42 57.2766 1041.3 57.5926C1041.22 57.8691 1041.14 58.3826 1041.06 59.1332C1041.02 59.8442 1041 60.417 1041 60.8515C1041 61.2465 1041 61.8983 1041 62.8068C1041 63.0438 1041 63.2216 1041 63.3401V135.035H1031.29V70.3318C1031.29 66.5397 1031.5 63.6758 1031.94 61.7403C1032.37 59.8047 1033.28 58.1456 1034.66 56.7631C1036.01 55.42 1036.62 54.551 1036.5 54.156C1036.38 53.7215 1035.45 53.5042 1033.72 53.5042H1023.29Z" fill="#B58C4D" style="fill:#B58C4D;fill:color(display-p3 0.7115 0.5484 0.3038);fill-opacity:1;"/>
<defs>
<radialGradient id="paint0_radial_2210_51" cx="0" cy="0" r="1" gradientUnits="userSpaceOnUse" gradientTransform="translate(54.5233 152.966) rotate(-75.9187) scale(155.624 204.619)">
<stop offset="0.0528846" stop-color="#A2712F" style="stop-color:#A2712F;stop-color:color(display-p3 0.6349 0.4423 0.1854);stop-opacity:1;"/>
<stop offset="0.278846" stop-color="#6C4108" style="stop-color:#6C4108;stop-color:color(display-p3 0.4229 0.2555 0.0323);stop-opacity:1;"/>
<stop offset="0.442308" stop-color="#A57330" style="stop-color:#A57330;stop-color:color(display-p3 0.6457 0.4504 0.1899);stop-opacity:1;"/>
<stop offset="0.629808" stop-color="#69420D" style="stop-color:#69420D;stop-color:color(display-p3 0.4131 0.2582 0.0516);stop-opacity:1;"/>
<stop offset="0.865385" stop-color="#8A5818" style="stop-color:#8A5818;stop-color:color(display-p3 0.5406 0.3466 0.0951);stop-opacity:1;"/>
</radialGradient>
<radialGradient id="paint1_radial_2210_51" cx="0" cy="0" r="1" gradientUnits="userSpaceOnUse" gradientTransform="translate(54.5233 152.966) rotate(-75.9187) scale(155.624 204.619)">
<stop offset="0.0528846" stop-color="#A2712F" style="stop-color:#A2712F;stop-color:color(display-p3 0.6349 0.4423 0.1854);stop-opacity:1;"/>
<stop offset="0.278846" stop-color="#6C4108" style="stop-color:#6C4108;stop-color:color(display-p3 0.4229 0.2555 0.0323);stop-opacity:1;"/>
<stop offset="0.442308" stop-color="#A57330" style="stop-color:#A57330;stop-color:color(display-p3 0.6457 0.4504 0.1899);stop-opacity:1;"/>
<stop offset="0.629808" stop-color="#69420D" style="stop-color:#69420D;stop-color:color(display-p3 0.4131 0.2582 0.0516);stop-opacity:1;"/>
<stop offset="0.865385" stop-color="#8A5818" style="stop-color:#8A5818;stop-color:color(display-p3 0.5406 0.3466 0.0951);stop-opacity:1;"/>
</radialGradient>
<radialGradient id="paint2_radial_2210_51" cx="0" cy="0" r="1" gradientUnits="userSpaceOnUse" gradientTransform="translate(54.5233 152.966) rotate(-75.9187) scale(155.624 204.619)">
<stop offset="0.0528846" stop-color="#A2712F" style="stop-color:#A2712F;stop-color:color(display-p3 0.6349 0.4423 0.1854);stop-opacity:1;"/>
<stop offset="0.278846" stop-color="#6C4108" style="stop-color:#6C4108;stop-color:color(display-p3 0.4229 0.2555 0.0323);stop-opacity:1;"/>
<stop offset="0.442308" stop-color="#A57330" style="stop-color:#A57330;stop-color:color(display-p3 0.6457 0.4504 0.1899);stop-opacity:1;"/>
<stop offset="0.629808" stop-color="#69420D" style="stop-color:#69420D;stop-color:color(display-p3 0.4131 0.2582 0.0516);stop-opacity:1;"/>
<stop offset="0.865385" stop-color="#8A5818" style="stop-color:#8A5818;stop-color:color(display-p3 0.5406 0.3466 0.0951);stop-opacity:1;"/>
</radialGradient>
<radialGradient id="paint3_radial_2210_51" cx="0" cy="0" r="1" gradientTransform="matrix(141.861 123.685 -215.457 247.113 12.1162 15.6499)" gradientUnits="userSpaceOnUse">
<stop offset="0.0528846" stop-color="#D89031" style="stop-color:#D89031;stop-color:color(display-p3 0.8465 0.5666 0.1933);stop-opacity:1;"/>
<stop offset="0.278846" stop-color="#E2AF6C" style="stop-color:#E2AF6C;stop-color:color(display-p3 0.8877 0.6881 0.4220);stop-opacity:1;"/>
<stop offset="0.442308" stop-color="#D28927" style="stop-color:#D28927;stop-color:color(display-p3 0.8230 0.5359 0.1532);stop-opacity:1;"/>
<stop offset="0.629808" stop-color="#EEC48B" style="stop-color:#EEC48B;stop-color:color(display-p3 0.9340 0.7676 0.5458);stop-opacity:1;"/>
<stop offset="0.865385" stop-color="#D27F13" style="stop-color:#D27F13;stop-color:color(display-p3 0.8232 0.4979 0.0763);stop-opacity:1;"/>
</radialGradient>
</defs>
</svg>
